<?xml version="1.0" encoding="UTF-8" standalone="no"?><svg xmlns="http://www.w3.org/2000/svg" xmlns:xlink="http://www.w3.org/1999/xlink" clip-rule="evenodd" stroke-miterlimit="10" viewBox="0 0 1920 1080"><desc>SVG generated by Keynote</desc><defs></defs><g transform="matrix(1.00, 0.00, -0.00, -1.00, 0.0, 1080.0)"><g><clipPath id="clip0x6080022b8ae0"><path d="M 0.0 1080.0 L 1920.0 1080.0 L 1920.0 0.0 L 0.0 0.0 Z M 0.0 1080.0 "></path></clipPath><g clip-path="url(#clip0x6080022b8ae0)"><image xlink:href="../../E833A12A-5955-4901-A2FB-E2755AB7052B/assets/1C105C22569839D5CDA325CC3340912A.png" width="961.00" height="541.00" transform="matrix(2.00, 0.00, -0.00, -2.00, 0.0, 1080.0)"></image></g></g><image xlink:href="../../E833A12A-5955-4901-A2FB-E2755AB7052B/assets/8A87A3B5F2651CC804842E862E028977.png" width="153.00" height="41.00" transform="matrix(0.95, 0.00, -0.00, -0.95, 1725.0, 1080.0)"></image><text xml:space="preserve" font-family="Helvetica,Helvetica" font-size="42.6" fill="#FFFFFF" transform="matrix(1.00, 0.00, -0.00, -1.00, 57.0, 781.8)">•</text><text xml:space="preserve" font-family="Helvetica,Helvetica" font-size="52.0" fill="#FFFFFF" transform="matrix(1.00, 0.00, -0.00, -1.00, 81.0, 779.0)">A</text><text xml:space="preserve" font-family="Helvetica,Helvetica" font-size="52.0" fill="#FFFFFF" transform="matrix(1.00, 0.00, -0.00, -1.00, 115.7, 779.0)">r</text><text xml:space="preserve" font-family="Helvetica,Helvetica" font-size="52.0" fill="#FFFFFF" transform="matrix(1.00, 0.00, -0.00, -1.00, 133.0, 779.0)">a</text><text xml:space="preserve" font-family="Helvetica,Helvetica" font-size="52.0" fill="#FFFFFF" transform="matrix(1.00, 0.00, -0.00, -1.00, 161.9, 779.0)">b</text><text xml:space="preserve" font-family="Helvetica,Helvetica" font-size="52.0" fill="#FFFFFF" transform="matrix(1.00, 0.00, -0.00, -1.00, 190.8, 779.0)">i</text><text xml:space="preserve" font-family="Helvetica,Helvetica" font-size="52.0" fill="#FFFFFF" transform="matrix(1.00, 0.00, -0.00, -1.00, 202.4, 779.0)">c</text><text xml:space="preserve" font-family="Helvetica,Helvetica" font-size="52.0" fill="#FFFFFF" transform="matrix(1.00, 0.00, -0.00, -1.00, 242.8, 779.0)">M</text><text xml:space="preserve" font-family="Helvetica,Helvetica" font-size="52.0" fill="#FFFFFF" transform="matrix(1.00, 0.00, -0.00, -1.00, 286.2, 779.0)">o</text><text xml:space="preserve" font-family="Helvetica,Helvetica" font-size="52.0" fill="#FFFFFF" transform="matrix(1.00, 0.00, -0.00, -1.00, 315.1, 779.0)">z</text><text xml:space="preserve" font-family="Helvetica,Helvetica" font-size="52.0" fill="#FFFFFF" transform="matrix(1.00, 0.00, -0.00, -1.00, 341.1, 779.0)">i</text><text xml:space="preserve" font-family="Helvetica,Helvetica" font-size="52.0" fill="#FFFFFF" transform="matrix(1.00, 0.00, -0.00, -1.00, 352.6, 779.0)">l</text><text xml:space="preserve" font-family="Helvetica,Helvetica" font-size="52.0" fill="#FFFFFF" transform="matrix(1.00, 0.00, -0.00, -1.00, 364.2, 779.0)">l</text><text xml:space="preserve" font-family="Helvetica,Helvetica" font-size="52.0" fill="#FFFFFF" transform="matrix(1.00, 0.00, -0.00, -1.00, 375.7, 779.0)">a</text><text xml:space="preserve" font-family="Helvetica,Helvetica" font-size="52.0" fill="#FFFFFF" transform="matrix(1.00, 0.00, -0.00, -1.00, 419.1, 779.0)">2</text><text xml:space="preserve" font-family="Helvetica,Helvetica" font-size="52.0" fill="#FFFFFF" transform="matrix(1.00, 0.00, -0.00, -1.00, 448.0, 779.0)">0</text><text xml:space="preserve" font-family="Helvetica,Helvetica" font-size="52.0" fill="#FFFFFF" transform="matrix(1.00, 0.00, -0.00, -1.00, 476.9, 779.0)">1</text><text xml:space="preserve" font-family="Helvetica,Helvetica" font-size="52.0" fill="#FFFFFF" transform="matrix(1.00, 0.00, -0.00, -1.00, 505.9, 779.0)">0</text><text xml:space="preserve" font-family="Helvetica,Helvetica" font-size="52.0" fill="#FFFFFF" transform="matrix(1.00, 0.00, -0.00, -1.00, 534.8, 779.0)">:</text><text xml:space="preserve" font-family="Helvetica,Helvetica" font-size="42.6" fill="#FFFFFF" transform="matrix(1.00, 0.00, -0.00, -1.00, 87.0, 665.8)">•</text><text xml:space="preserve" font-family="Helvetica,Helvetica" font-size="52.0" fill="#FFFFFF" transform="matrix(1.00, 0.00, -0.00, -1.00, 111.0, 663.0)">5</text><text xml:space="preserve" font-family="Helvetica,Helvetica" font-size="52.0" fill="#FFFFFF" transform="matrix(1.00, 0.00, -0.00, -1.00, 154.4, 663.0)">a</text><text xml:space="preserve" font-family="Helvetica,Helvetica" font-size="52.0" fill="#FFFFFF" transform="matrix(1.00, 0.00, -0.00, -1.00, 183.3, 663.0)">c</text><text xml:space="preserve" font-family="Helvetica,Helvetica" font-size="52.0" fill="#FFFFFF" transform="matrix(1.00, 0.00, -0.00, -1.00, 209.3, 663.0)">t</text><text xml:space="preserve" font-family="Helvetica,Helvetica" font-size="52.0" fill="#FFFFFF" transform="matrix(1.00, 0.00, -0.00, -1.00, 223.7, 663.0)">i</text><text xml:space="preserve" font-family="Helvetica,Helvetica" font-size="52.0" fill="#FFFFFF" transform="matrix(1.00, 0.00, -0.00, -1.00, 235.3, 663.0)">v</text><text xml:space="preserve" font-family="Helvetica,Helvetica" font-size="52.0" fill="#FFFFFF" transform="matrix(1.00, 0.00, -0.00, -1.00, 261.3, 663.0)">e</text><text xml:space="preserve" font-family="Helvetica,Helvetica" font-size="52.0" fill="#FFFFFF" transform="matrix(1.00, 0.00, -0.00, -1.00, 304.7, 663.0)">c</text><text xml:space="preserve" font-family="Helvetica,Helvetica" font-size="52.0" fill="#FFFFFF" transform="matrix(1.00, 0.00, -0.00, -1.00, 330.7, 663.0)">o</text><text xml:space="preserve" font-family="Helvetica,Helvetica" font-size="52.0" fill="#FFFFFF" transform="matrix(1.00, 0.00, -0.00, -1.00, 359.6, 663.0)">n</text><text xml:space="preserve" font-family="Helvetica,Helvetica" font-size="52.0" fill="#FFFFFF" transform="matrix(1.00, 0.00, -0.00, -1.00, 388.5, 663.0)">t</text><text xml:space="preserve" font-family="Helvetica,Helvetica" font-size="52.0" fill="#FFFFFF" transform="matrix(1.00, 0.00, -0.00, -1.00, 402.9, 663.0)">r</text><text xml:space="preserve" font-family="Helvetica,Helvetica" font-size="52.0" fill="#FFFFFF" transform="matrix(1.00, 0.00, -0.00, -1.00, 420.3, 663.0)">i</text><text xml:space="preserve" font-family="Helvetica,Helvetica" font-size="52.0" fill="#FFFFFF" transform="matrix(1.00, 0.00, -0.00, -1.00, 431.8, 663.0)">b</text><text xml:space="preserve" font-family="Helvetica,Helvetica" font-size="52.0" fill="#FFFFFF" transform="matrix(1.00, 0.00, -0.00, -1.00, 460.7, 663.0)">u</text><text xml:space="preserve" font-family="Helvetica,Helvetica" font-size="52.0" fill="#FFFFFF" transform="matrix(1.00, 0.00, -0.00, -1.00, 489.7, 663.0)">t</text><text xml:space="preserve" font-family="Helvetica,Helvetica" font-size="52.0" fill="#FFFFFF" transform="matrix(1.00, 0.00, -0.00, -1.00, 504.1, 663.0)">o</text><text xml:space="preserve" font-family="Helvetica,Helvetica" font-size="52.0" fill="#FFFFFF" transform="matrix(1.00, 0.00, -0.00, -1.00, 533.0, 663.0)">r</text><text xml:space="preserve" font-family="Helvetica,Helvetica" font-size="52.0" fill="#FFFFFF" transform="matrix(1.00, 0.00, -0.00, -1.00, 550.3, 663.0)">s</text><image xlink:href="../../4CE57E67-72D4-46C8-9240-5A7DB9BC1C2B/assets/241BAE90B9DD6B9EABF2861F06346D37.jpeg" width="900.00" height="349.00" transform="matrix(1.00, 0.00, -0.00, -1.00, 980.0, 767.0)"></image><text xml:space="preserve" font-family="Helvetica,Helvetica" font-size="88.0" fill="#FFFFFF" transform="matrix(1.00, 0.00, -0.00, -1.00, 57.0, 951.2)">F</text><text xml:space="preserve" font-family="Helvetica,Helvetica" font-size="88.0" fill="#FFFFFF" transform="matrix(1.00, 0.00, -0.00, -1.00, 110.7, 951.2)">R</text><text xml:space="preserve" font-family="Helvetica,Helvetica" font-size="88.0" fill="#FFFFFF" transform="matrix(1.00, 0.00, -0.00, -1.00, 174.3, 951.2)">O</text><text xml:space="preserve" font-family="Helvetica,Helvetica" font-size="88.0" fill="#FFFFFF" transform="matrix(1.00, 0.00, -0.00, -1.00, 242.7, 951.2)">M</text><text xml:space="preserve" font-family="Helvetica,Helvetica" font-size="88.0" fill="#FFFFFF" transform="matrix(1.00, 0.00, -0.00, -1.00, 316.0, 951.2)"> </text><text xml:space="preserve" font-family="Helvetica,Helvetica" font-size="88.0" fill="#FFFFFF" transform="matrix(1.00, 0.00, -0.00, -1.00, 340.5, 951.2)">2</text><text xml:space="preserve" font-family="Helvetica,Helvetica" font-size="88.0" fill="#FFFFFF" transform="matrix(1.00, 0.00, -0.00, -1.00, 389.4, 951.2)">0</text><text xml:space="preserve" font-family="Helvetica,Helvetica" font-size="88.0" fill="#FFFFFF" transform="matrix(1.00, 0.00, -0.00, -1.00, 438.4, 951.2)">1</text><text xml:space="preserve" font-family="Helvetica,Helvetica" font-size="88.0" fill="#FFFFFF" transform="matrix(1.00, 0.00, -0.00, -1.00, 487.3, 951.2)">0</text><text xml:space="preserve" font-family="Helvetica,Helvetica" font-size="88.0" fill="#FFFFFF" transform="matrix(1.00, 0.00, -0.00, -1.00, 536.3, 951.2)"> </text><text xml:space="preserve" font-family="Helvetica,Helvetica" font-size="88.0" fill="#FFFFFF" transform="matrix(1.00, 0.00, -0.00, -1.00, 560.7, 951.2)">U</text><text xml:space="preserve" font-family="Helvetica,Helvetica" font-size="88.0" fill="#FFFFFF" transform="matrix(1.00, 0.00, -0.00, -1.00, 624.3, 951.2)">N</text><text xml:space="preserve" font-family="Helvetica,Helvetica" font-size="88.0" fill="#FFFFFF" transform="matrix(1.00, 0.00, -0.00, -1.00, 687.9, 951.2)">T</text><text xml:space="preserve" font-family="Helvetica,Helvetica" font-size="88.0" fill="#FFFFFF" transform="matrix(1.00, 0.00, -0.00, -1.00, 741.6, 951.2)">I</text><text xml:space="preserve" font-family="Helvetica,Helvetica" font-size="88.0" fill="#FFFFFF" transform="matrix(1.00, 0.00, -0.00, -1.00, 766.0, 951.2)">L</text><text xml:space="preserve" font-family="Helvetica,Helvetica" font-size="88.0" fill="#FFFFFF" transform="matrix(1.00, 0.00, -0.00, -1.00, 811.8, 951.2)"> </text><text xml:space="preserve" font-family="Helvetica,Helvetica" font-size="88.0" fill="#FFFFFF" transform="matrix(1.00, 0.00, -0.00, -1.00, 834.7, 951.2)">T</text><text xml:space="preserve" font-family="Helvetica,Helvetica" font-size="88.0" fill="#FFFFFF" transform="matrix(1.00, 0.00, -0.00, -1.00, 886.9, 951.2)">O</text><text xml:space="preserve" font-family="Helvetica,Helvetica" font-size="88.0" fill="#FFFFFF" transform="matrix(1.00, 0.00, -0.00, -1.00, 955.3, 951.2)">D</text><text xml:space="preserve" font-family="Helvetica,Helvetica" font-size="88.0" fill="#FFFFFF" transform="matrix(1.00, 0.00, -0.00, -1.00, 1018.9, 951.2)">A</text><text xml:space="preserve" font-family="Helvetica,Helvetica" font-size="88.0" fill="#FFFFFF" transform="matrix(1.00, 0.00, -0.00, -1.00, 1071.1, 951.2)">Y</text><text xml:space="preserve" font-family="GillSans-Light,Gill Sans" font-size="24.0" fill="#525252" transform="matrix(1.00, 0.00, -0.00, -1.00, 954.5, 24.7)">2</text><text xml:space="preserve" font-family="Helvetica,Helvetica" font-size="42.6" fill="#FFFFFF" transform="matrix(1.00, 0.00, -0.00, -1.00, 52.8, 520.0)">•</text><text xml:space="preserve" font-family="Helvetica,Helvetica" font-size="52.0" fill="#FFFFFF" transform="matrix(1.00, 0.00, -0.00, -1.00, 76.8, 517.2)">A</text><text xml:space="preserve" font-family="Helvetica,Helvetica" font-size="52.0" fill="#FFFFFF" transform="matrix(1.00, 0.00, -0.00, -1.00, 111.5, 517.2)">r</text><text xml:space="preserve" font-family="Helvetica,Helvetica" font-size="52.0" fill="#FFFFFF" transform="matrix(1.00, 0.00, -0.00, -1.00, 128.8, 517.2)">a</text><text xml:space="preserve" font-family="Helvetica,Helvetica" font-size="52.0" fill="#FFFFFF" transform="matrix(1.00, 0.00, -0.00, -1.00, 157.7, 517.2)">b</text><text xml:space="preserve" font-family="Helvetica,Helvetica" font-size="52.0" fill="#FFFFFF" transform="matrix(1.00, 0.00, -0.00, -1.00, 186.6, 517.2)">i</text><text xml:space="preserve" font-family="Helvetica,Helvetica" font-size="52.0" fill="#FFFFFF" transform="matrix(1.00, 0.00, -0.00, -1.00, 198.2, 517.2)">c</text><text xml:space="preserve" font-family="Helvetica,Helvetica" font-size="52.0" fill="#FFFFFF" transform="matrix(1.00, 0.00, -0.00, -1.00, 238.6, 517.2)">M</text><text xml:space="preserve" font-family="Helvetica,Helvetica" font-size="52.0" fill="#FFFFFF" transform="matrix(1.00, 0.00, -0.00, -1.00, 281.9, 517.2)">o</text><text xml:space="preserve" font-family="Helvetica,Helvetica" font-size="52.0" fill="#FFFFFF" transform="matrix(1.00, 0.00, -0.00, -1.00, 310.9, 517.2)">z</text><text xml:space="preserve" font-family="Helvetica,Helvetica" font-size="52.0" fill="#FFFFFF" transform="matrix(1.00, 0.00, -0.00, -1.00, 336.9, 517.2)">i</text><text xml:space="preserve" font-family="Helvetica,Helvetica" font-size="52.0" fill="#FFFFFF" transform="matrix(1.00, 0.00, -0.00, -1.00, 348.4, 517.2)">l</text><text xml:space="preserve" font-family="Helvetica,Helvetica" font-size="52.0" fill="#FFFFFF" transform="matrix(1.00, 0.00, -0.00, -1.00, 360.0, 517.2)">l</text><text xml:space="preserve" font-family="Helvetica,Helvetica" font-size="52.0" fill="#FFFFFF" transform="matrix(1.00, 0.00, -0.00, -1.00, 371.5, 517.2)">a</text><text xml:space="preserve" font-family="Helvetica,Helvetica" font-size="52.0" fill="#FFFFFF" transform="matrix(1.00, 0.00, -0.00, -1.00, 414.9, 517.2)">2</text><text xml:space="preserve" font-family="Helvetica,Helvetica" font-size="52.0" fill="#FFFFFF" transform="matrix(1.00, 0.00, -0.00, -1.00, 443.8, 517.2)">0</text><text xml:space="preserve" font-family="Helvetica,Helvetica" font-size="52.0" fill="#FFFFFF" transform="matrix(1.00, 0.00, -0.00, -1.00, 472.7, 517.2)">1</text><text xml:space="preserve" font-family="Helvetica,Helvetica" font-size="52.0" fill="#FFFFFF" transform="matrix(1.00, 0.00, -0.00, -1.00, 501.6, 517.2)">2</text><text xml:space="preserve" font-family="Helvetica,Helvetica" font-size="52.0" fill="#FFFFFF" transform="matrix(1.00, 0.00, -0.00, -1.00, 530.6, 517.2)">:</text><text xml:space="preserve" font-family="Helvetica,Helvetica" font-size="42.6" fill="#FFFFFF" transform="matrix(1.00, 0.00, -0.00, -1.00, 82.8, 404.0)">•</text><text xml:space="preserve" font-family="Helvetica,Helvetica" font-size="52.0" fill="#FFFFFF" transform="matrix(1.00, 0.00, -0.00, -1.00, 106.8, 401.2)">1</text><text xml:space="preserve" font-family="Helvetica,Helvetica" font-size="52.0" fill="#FFFFFF" transform="matrix(1.00, 0.00, -0.00, -1.00, 135.7, 401.2)">0</text><text xml:space="preserve" font-family="Helvetica,Helvetica" font-size="52.0" fill="#FFFFFF" transform="matrix(1.00, 0.00, -0.00, -1.00, 179.1, 401.2)">c</text><text xml:space="preserve" font-family="Helvetica,Helvetica" font-size="52.0" fill="#FFFFFF" transform="matrix(1.00, 0.00, -0.00, -1.00, 205.1, 401.2)">o</text><text xml:space="preserve" font-family="Helvetica,Helvetica" font-size="52.0" fill="#FFFFFF" transform="matrix(1.00, 0.00, -0.00, -1.00, 234.0, 401.2)">r</text><text xml:space="preserve" font-family="Helvetica,Helvetica" font-size="52.0" fill="#FFFFFF" transform="matrix(1.00, 0.00, -0.00, -1.00, 251.3, 401.2)">e</text><text xml:space="preserve" font-family="Helvetica,Helvetica" font-size="52.0" fill="#FFFFFF" transform="matrix(1.00, 0.00, -0.00, -1.00, 294.7, 401.2)">c</text><text xml:space="preserve" font-family="Helvetica,Helvetica" font-size="52.0" fill="#FFFFFF" transform="matrix(1.00, 0.00, -0.00, -1.00, 320.7, 401.2)">o</text><text xml:space="preserve" font-family="Helvetica,Helvetica" font-size="52.0" fill="#FFFFFF" transform="matrix(1.00, 0.00, -0.00, -1.00, 349.6, 401.2)">n</text><text xml:space="preserve" font-family="Helvetica,Helvetica" font-size="52.0" fill="#FFFFFF" transform="matrix(1.00, 0.00, -0.00, -1.00, 378.5, 401.2)">t</text><text xml:space="preserve" font-family="Helvetica,Helvetica" font-size="52.0" fill="#FFFFFF" transform="matrix(1.00, 0.00, -0.00, -1.00, 393.0, 401.2)">r</text><text xml:space="preserve" font-family="Helvetica,Helvetica" font-size="52.0" fill="#FFFFFF" transform="matrix(1.00, 0.00, -0.00, -1.00, 410.3, 401.2)">i</text><text xml:space="preserve" font-family="Helvetica,Helvetica" font-size="52.0" fill="#FFFFFF" transform="matrix(1.00, 0.00, -0.00, -1.00, 421.8, 401.2)">b</text><text xml:space="preserve" font-family="Helvetica,Helvetica" font-size="52.0" fill="#FFFFFF" transform="matrix(1.00, 0.00, -0.00, -1.00, 450.7, 401.2)">u</text><text xml:space="preserve" font-family="Helvetica,Helvetica" font-size="52.0" fill="#FFFFFF" transform="matrix(1.00, 0.00, -0.00, -1.00, 479.7, 401.2)">t</text><text xml:space="preserve" font-family="Helvetica,Helvetica" font-size="52.0" fill="#FFFFFF" transform="matrix(1.00, 0.00, -0.00, -1.00, 494.1, 401.2)">o</text><text xml:space="preserve" font-family="Helvetica,Helvetica" font-size="52.0" fill="#FFFFFF" transform="matrix(1.00, 0.00, -0.00, -1.00, 523.0, 401.2)">r</text><text xml:space="preserve" font-family="Helvetica,Helvetica" font-size="52.0" fill="#FFFFFF" transform="matrix(1.00, 0.00, -0.00, -1.00, 540.4, 401.2)">s</text><text xml:space="preserve" font-family="Helvetica,Helvetica" font-size="42.6" fill="#FFFFFF" transform="matrix(1.00, 0.00, -0.00, -1.00, 82.8, 288.0)">•</text><text xml:space="preserve" font-family="Helvetica,Helvetica" font-size="52.0" fill="#FFFFFF" transform="matrix(1.00, 0.00, -0.00, -1.00, 106.8, 285.2)">+</text><text xml:space="preserve" font-family="Helvetica,Helvetica" font-size="52.0" fill="#FFFFFF" transform="matrix(1.00, 0.00, -0.00, -1.00, 137.1, 285.2)">2</text><text xml:space="preserve" font-family="Helvetica,Helvetica" font-size="52.0" fill="#FFFFFF" transform="matrix(1.00, 0.00, -0.00, -1.00, 166.1, 285.2)">0</text><text xml:space="preserve" font-family="Helvetica,Helvetica" font-size="52.0" fill="#FFFFFF" transform="matrix(1.00, 0.00, -0.00, -1.00, 209.4, 285.2)">a</text><text xml:space="preserve" font-family="Helvetica,Helvetica" font-size="52.0" fill="#FFFFFF" transform="matrix(1.00, 0.00, -0.00, -1.00, 238.4, 285.2)">c</text><text xml:space="preserve" font-family="Helvetica,Helvetica" font-size="52.0" fill="#FFFFFF" transform="matrix(1.00, 0.00, -0.00, -1.00, 264.4, 285.2)">t</text><text xml:space="preserve" font-family="Helvetica,Helvetica" font-size="52.0" fill="#FFFFFF" transform="matrix(1.00, 0.00, -0.00, -1.00, 278.8, 285.2)">i</text><text xml:space="preserve" font-family="Helvetica,Helvetica" font-size="52.0" fill="#FFFFFF" transform="matrix(1.00, 0.00, -0.00, -1.00, 290.4, 285.2)">v</text><text xml:space="preserve" font-family="Helvetica,Helvetica" font-size="52.0" fill="#FFFFFF" transform="matrix(1.00, 0.00, -0.00, -1.00, 316.4, 285.2)">e</text><text xml:space="preserve" font-family="Helvetica,Helvetica" font-size="52.0" fill="#FFFFFF" transform="matrix(1.00, 0.00, -0.00, -1.00, 359.7, 285.2)">c</text><text xml:space="preserve" font-family="Helvetica,Helvetica" font-size="52.0" fill="#FFFFFF" transform="matrix(1.00, 0.00, -0.00, -1.00, 385.7, 285.2)">o</text><text xml:space="preserve" font-family="Helvetica,Helvetica" font-size="52.0" fill="#FFFFFF" transform="matrix(1.00, 0.00, -0.00, -1.00, 414.6, 285.2)">n</text><text xml:space="preserve" font-family="Helvetica,Helvetica" font-size="52.0" fill="#FFFFFF" transform="matrix(1.00, 0.00, -0.00, -1.00, 443.6, 285.2)">t</text><text xml:space="preserve" font-family="Helvetica,Helvetica" font-size="52.0" fill="#FFFFFF" transform="matrix(1.00, 0.00, -0.00, -1.00, 458.0, 285.2)">r</text><text xml:space="preserve" font-family="Helvetica,Helvetica" font-size="52.0" fill="#FFFFFF" transform="matrix(1.00, 0.00, -0.00, -1.00, 475.3, 285.2)">i</text><text xml:space="preserve" font-family="Helvetica,Helvetica" font-size="52.0" fill="#FFFFFF" transform="matrix(1.00, 0.00, -0.00, -1.00, 486.9, 285.2)">b</text><text xml:space="preserve" font-family="Helvetica,Helvetica" font-size="52.0" fill="#FFFFFF" transform="matrix(1.00, 0.00, -0.00, -1.00, 515.8, 285.2)">u</text><text xml:space="preserve" font-family="Helvetica,Helvetica" font-size="52.0" fill="#FFFFFF" transform="matrix(1.00, 0.00, -0.00, -1.00, 544.7, 285.2)">t</text><text xml:space="preserve" font-family="Helvetica,Helvetica" font-size="52.0" fill="#FFFFFF" transform="matrix(1.00, 0.00, -0.00, -1.00, 559.2, 285.2)">o</text><text xml:space="preserve" font-family="Helvetica,Helvetica" font-size="52.0" fill="#FFFFFF" transform="matrix(1.00, 0.00, -0.00, -1.00, 588.1, 285.2)">r</text><text xml:space="preserve" font-family="Helvetica,Helvetica" font-size="52.0" fill="#FFFFFF" transform="matrix(1.00, 0.00, -0.00, -1.00, 605.4, 285.2)">s</text><text xml:space="preserve" font-family="Helvetica,Helvetica" font-size="42.6" fill="#FFFFFF" transform="matrix(1.00, 0.00, -0.00, -1.00, 45.2, 182.8)">•</text><text xml:space="preserve" font-family="Helvetica,Helvetica" font-size="52.0" fill="#FFFFFF" transform="matrix(1.00, 0.00, -0.00, -1.00, 69.2, 179.9)">A</text><text xml:space="preserve" font-family="Helvetica,Helvetica" font-size="52.0" fill="#FFFFFF" transform="matrix(1.00, 0.00, -0.00, -1.00, 103.9, 179.9)">r</text><text xml:space="preserve" font-family="Helvetica,Helvetica" font-size="52.0" fill="#FFFFFF" transform="matrix(1.00, 0.00, -0.00, -1.00, 121.2, 179.9)">a</text><text xml:space="preserve" font-family="Helvetica,Helvetica" font-size="52.0" fill="#FFFFFF" transform="matrix(1.00, 0.00, -0.00, -1.00, 150.2, 179.9)">b</text><text xml:space="preserve" font-family="Helvetica,Helvetica" font-size="52.0" fill="#FFFFFF" transform="matrix(1.00, 0.00, -0.00, -1.00, 179.1, 179.9)">i</text><text xml:space="preserve" font-family="Helvetica,Helvetica" font-size="52.0" fill="#FFFFFF" transform="matrix(1.00, 0.00, -0.00, -1.00, 190.6, 179.9)">c</text><text xml:space="preserve" font-family="Helvetica,Helvetica" font-size="52.0" fill="#FFFFFF" transform="matrix(1.00, 0.00, -0.00, -1.00, 231.1, 179.9)">M</text><text xml:space="preserve" font-family="Helvetica,Helvetica" font-size="52.0" fill="#FFFFFF" transform="matrix(1.00, 0.00, -0.00, -1.00, 274.4, 179.9)">o</text><text xml:space="preserve" font-family="Helvetica,Helvetica" font-size="52.0" fill="#FFFFFF" transform="matrix(1.00, 0.00, -0.00, -1.00, 303.3, 179.9)">z</text><text xml:space="preserve" font-family="Helvetica,Helvetica" font-size="52.0" fill="#FFFFFF" transform="matrix(1.00, 0.00, -0.00, -1.00, 329.3, 179.9)">i</text><text xml:space="preserve" font-family="Helvetica,Helvetica" font-size="52.0" fill="#FFFFFF" transform="matrix(1.00, 0.00, -0.00, -1.00, 340.9, 179.9)">l</text><text xml:space="preserve" font-family="Helvetica,Helvetica" font-size="52.0" fill="#FFFFFF" transform="matrix(1.00, 0.00, -0.00, -1.00, 352.4, 179.9)">l</text><text xml:space="preserve" font-family="Helvetica,Helvetica" font-size="52.0" fill="#FFFFFF" transform="matrix(1.00, 0.00, -0.00, -1.00, 364.0, 179.9)">a</text><text xml:space="preserve" font-family="Helvetica,Helvetica" font-size="52.0" fill="#FFFFFF" transform="matrix(1.00, 0.00, -0.00, -1.00, 407.3, 179.9)">2</text><text xml:space="preserve" font-family="Helvetica,Helvetica" font-size="52.0" fill="#FFFFFF" transform="matrix(1.00, 0.00, -0.00, -1.00, 436.3, 179.9)">0</text><text xml:space="preserve" font-family="Helvetica,Helvetica" font-size="52.0" fill="#FFFFFF" transform="matrix(1.00, 0.00, -0.00, -1.00, 465.2, 179.9)">1</text><text xml:space="preserve" font-family="Helvetica,Helvetica" font-size="52.0" fill="#FFFFFF" transform="matrix(1.00, 0.00, -0.00, -1.00, 494.1, 179.9)">4</text><text xml:space="preserve" font-family="Helvetica,Helvetica" font-size="52.0" fill="#FFFFFF" transform="matrix(1.00, 0.00, -0.00, -1.00, 523.0, 179.9)">:</text><text xml:space="preserve" font-family="Helvetica,Helvetica" font-size="42.6" fill="#FFFFFF" transform="matrix(1.00, 0.00, -0.00, -1.00, 75.2, 66.8)">•</text><text xml:space="preserve" font-family="Helvetica,Helvetica" font-size="52.0" fill="#FFFFFF" transform="matrix(1.00, 0.00, -0.00, -1.00, 99.2, 63.9)">K</text><text xml:space="preserve" font-family="Helvetica,Helvetica" font-size="52.0" fill="#FFFFFF" transform="matrix(1.00, 0.00, -0.00, -1.00, 133.9, 63.9)">e</text><text xml:space="preserve" font-family="Helvetica,Helvetica" font-size="52.0" fill="#FFFFFF" transform="matrix(1.00, 0.00, -0.00, -1.00, 162.8, 63.9)">r</text><text xml:space="preserve" font-family="Helvetica,Helvetica" font-size="52.0" fill="#FFFFFF" transform="matrix(1.00, 0.00, -0.00, -1.00, 180.2, 63.9)">n</text><text xml:space="preserve" font-family="Helvetica,Helvetica" font-size="52.0" fill="#FFFFFF" transform="matrix(1.00, 0.00, -0.00, -1.00, 209.1, 63.9)">e</text><text xml:space="preserve" font-family="Helvetica,Helvetica" font-size="52.0" fill="#FFFFFF" transform="matrix(1.00, 0.00, -0.00, -1.00, 238.0, 63.9)">l</text><text xml:space="preserve" font-family="Helvetica,Helvetica" font-size="52.0" fill="#FFFFFF" transform="matrix(1.00, 0.00, -0.00, -1.00, 263.1, 63.9)">T</text><text xml:space="preserve" font-family="Helvetica,Helvetica" font-size="52.0" fill="#FFFFFF" transform="matrix(1.00, 0.00, -0.00, -1.00, 289.1, 63.9)">e</text><text xml:space="preserve" font-family="Helvetica,Helvetica" font-size="52.0" fill="#FFFFFF" transform="matrix(1.00, 0.00, -0.00, -1.00, 318.0, 63.9)">a</text><text xml:space="preserve" font-family="Helvetica,Helvetica" font-size="52.0" fill="#FFFFFF" transform="matrix(1.00, 0.00, -0.00, -1.00, 346.9, 63.9)">m</text><text xml:space="preserve" font-family="Helvetica,Helvetica" font-size="52.0" fill="#FFFFFF" transform="matrix(1.00, 0.00, -0.00, -1.00, 404.7, 63.9)">+</text><text xml:space="preserve" font-family="Helvetica,Helvetica" font-size="52.0" fill="#FFFFFF" transform="matrix(1.00, 0.00, -0.00, -1.00, 449.5, 63.9)">1</text><text xml:space="preserve" font-family="Helvetica,Helvetica" font-size="52.0" fill="#FFFFFF" transform="matrix(1.00, 0.00, -0.00, -1.00, 478.4, 63.9)">4</text><text xml:space="preserve" font-family="Helvetica,Helvetica" font-size="52.0" fill="#FFFFFF" transform="matrix(1.00, 0.00, -0.00, -1.00, 521.8, 63.9)">a</text><text xml:space="preserve" font-family="Helvetica,Helvetica" font-size="52.0" fill="#FFFFFF" transform="matrix(1.00, 0.00, -0.00, -1.00, 550.7, 63.9)">c</text><text xml:space="preserve" font-family="Helvetica,Helvetica" font-size="52.0" fill="#FFFFFF" transform="matrix(1.00, 0.00, -0.00, -1.00, 576.7, 63.9)">t</text><text xml:space="preserve" font-family="Helvetica,Helvetica" font-size="52.0" fill="#FFFFFF" transform="matrix(1.00, 0.00, -0.00, -1.00, 591.2, 63.9)">i</text><text xml:space="preserve" font-family="Helvetica,Helvetica" font-size="52.0" fill="#FFFFFF" transform="matrix(1.00, 0.00, -0.00, -1.00, 602.7, 63.9)">v</text><text xml:space="preserve" font-family="Helvetica,Helvetica" font-size="52.0" fill="#FFFFFF" transform="matrix(1.00, 0.00, -0.00, -1.00, 628.7, 63.9)">e</text><text xml:space="preserve" font-family="Helvetica,Helvetica" font-size="52.0" fill="#FFFFFF" transform="matrix(1.00, 0.00, -0.00, -1.00, 672.1, 63.9)">c</text><text xml:space="preserve" font-family="Helvetica,Helvetica" font-size="52.0" fill="#FFFFFF" transform="matrix(1.00, 0.00, -0.00, -1.00, 698.1, 63.9)">o</text><text xml:space="preserve" font-family="Helvetica,Helvetica" font-size="52.0" fill="#FFFFFF" transform="matrix(1.00, 0.00, -0.00, -1.00, 727.0, 63.9)">n</text><text xml:space="preserve" font-family="Helvetica,Helvetica" font-size="52.0" fill="#FFFFFF" transform="matrix(1.00, 0.00, -0.00, -1.00, 755.9, 63.9)">t</text><text xml:space="preserve" font-family="Helvetica,Helvetica" font-size="52.0" fill="#FFFFFF" transform="matrix(1.00, 0.00, -0.00, -1.00, 770.4, 63.9)">r</text><text xml:space="preserve" font-family="Helvetica,Helvetica" font-size="52.0" fill="#FFFFFF" transform="matrix(1.00, 0.00, -0.00, -1.00, 787.7, 63.9)">i</text><text xml:space="preserve" font-family="Helvetica,Helvetica" font-size="52.0" fill="#FFFFFF" transform="matrix(1.00, 0.00, -0.00, -1.00, 799.2, 63.9)">b</text><text xml:space="preserve" font-family="Helvetica,Helvetica" font-size="52.0" fill="#FFFFFF" transform="matrix(1.00, 0.00, -0.00, -1.00, 828.2, 63.9)">u</text><text xml:space="preserve" font-family="Helvetica,Helvetica" font-size="52.0" fill="#FFFFFF" transform="matrix(1.00, 0.00, -0.00, -1.00, 857.1, 63.9)">t</text><text xml:space="preserve" font-family="Helvetica,Helvetica" font-size="52.0" fill="#FFFFFF" transform="matrix(1.00, 0.00, -0.00, -1.00, 871.5, 63.9)">o</text><text xml:space="preserve" font-family="Helvetica,Helvetica" font-size="52.0" fill="#FFFFFF" transform="matrix(1.00, 0.00, -0.00, -1.00, 900.4, 63.9)">r</text><text xml:space="preserve" font-family="Helvetica,Helvetica" font-size="52.0" fill="#FFFFFF" transform="matrix(1.00, 0.00, -0.00, -1.00, 917.8, 63.9)">s</text></g></svg>