<?xml version="1.0" encoding="UTF-8" standalone="no"?><svg xmlns="http://www.w3.org/2000/svg" xmlns:xlink="http://www.w3.org/1999/xlink" clip-rule="evenodd" stroke-miterlimit="10" viewBox="0 0 566 70"><desc>SVG generated by Keynote</desc><defs></defs><g transform="matrix(1.00, 0.00, -0.00, -1.00, 0.0, 70.0)"><text xml:space="preserve" font-family="Helvetica,Helvetica" font-size="88.0" fill="#FFFFFF" transform="matrix(1.00, 0.00, -0.00, -1.00, 1.0, 3.2)"> </text><text xml:space="preserve" font-family="Helvetica,Helvetica" font-size="88.0" fill="#FFFFFF" transform="matrix(1.00, 0.00, -0.00, -1.00, 25.4, 3.2)"> </text><text xml:space="preserve" font-family="Helvetica,Helvetica" font-size="88.0" fill="#FFFFFF" transform="matrix(1.00, 0.00, -0.00, -1.00, 49.9, 3.2)"> </text><text xml:space="preserve" font-family="Helvetica,Helvetica" font-size="88.0" fill="#FFFFFF" transform="matrix(1.00, 0.00, -0.00, -1.00, 74.3, 3.2)"> </text><text xml:space="preserve" font-family="Helvetica,Helvetica" font-size="88.0" fill="#FFFFFF" transform="matrix(1.00, 0.00, -0.00, -1.00, 98.7, 3.2)">P</text><text xml:space="preserve" font-family="Helvetica,Helvetica" font-size="88.0" fill="#FFFFFF" transform="matrix(1.00, 0.00, -0.00, -1.00, 157.4, 3.2)">R</text><text xml:space="preserve" font-family="Helvetica,Helvetica" font-size="88.0" fill="#FFFFFF" transform="matrix(1.00, 0.00, -0.00, -1.00, 221.0, 3.2)">O</text><text xml:space="preserve" font-family="Helvetica,Helvetica" font-size="88.0" fill="#FFFFFF" transform="matrix(1.00, 0.00, -0.00, -1.00, 289.4, 3.2)">J</text><text xml:space="preserve" font-family="Helvetica,Helvetica" font-size="88.0" fill="#FFFFFF" transform="matrix(1.00, 0.00, -0.00, -1.00, 333.4, 3.2)">E</text><text xml:space="preserve" font-family="Helvetica,Helvetica" font-size="88.0" fill="#FFFFFF" transform="matrix(1.00, 0.00, -0.00, -1.00, 392.1, 3.2)">C</text><text xml:space="preserve" font-family="Helvetica,Helvetica" font-size="88.0" fill="#FFFFFF" transform="matrix(1.00, 0.00, -0.00, -1.00, 455.7, 3.2)">T</text><text xml:space="preserve" font-family="Helvetica,Helvetica" font-size="88.0" fill="#FFFFFF" transform="matrix(1.00, 0.00, -0.00, -1.00, 509.4, 3.2)">S</text></g></svg>