<?xml version="1.0" encoding="UTF-8" standalone="no"?><svg xmlns="http://www.w3.org/2000/svg" xmlns:xlink="http://www.w3.org/1999/xlink" clip-rule="evenodd" stroke-miterlimit="10" viewBox="0 0 1083 517"><desc>SVG generated by Keynote</desc><defs></defs><g transform="matrix(1.00, 0.00, -0.00, -1.00, 0.0, 517.0)"><text xml:space="preserve" font-family="Helvetica,Helvetica" font-size="42.6" fill="#FFFFFF" transform="matrix(1.00, 0.00, -0.00, -1.00, 0.0, 479.8)">•</text><text xml:space="preserve" font-family="Helvetica,Helvetica" font-size="52.0" fill="#FFFFFF" transform="matrix(1.00, 0.00, -0.00, -1.00, 24.0, 477.0)">M</text><text xml:space="preserve" font-family="Helvetica,Helvetica" font-size="52.0" fill="#FFFFFF" transform="matrix(1.00, 0.00, -0.00, -1.00, 67.3, 477.0)">o</text><text xml:space="preserve" font-family="Helvetica,Helvetica" font-size="52.0" fill="#FFFFFF" transform="matrix(1.00, 0.00, -0.00, -1.00, 96.2, 477.0)">z</text><text xml:space="preserve" font-family="Helvetica,Helvetica" font-size="52.0" fill="#FFFFFF" transform="matrix(1.00, 0.00, -0.00, -1.00, 122.2, 477.0)">T</text><text xml:space="preserve" font-family="Helvetica,Helvetica" font-size="52.0" fill="#FFFFFF" transform="matrix(1.00, 0.00, -0.00, -1.00, 154.0, 477.0)">n</text><text xml:space="preserve" font-family="Helvetica,Helvetica" font-size="52.0" fill="#FFFFFF" transform="matrix(1.00, 0.00, -0.00, -1.00, 182.9, 477.0)"> </text><text xml:space="preserve" font-family="Helvetica,Helvetica" font-size="52.0" fill="#FFFFFF" transform="matrix(1.00, 0.00, -0.00, -1.00, 197.4, 477.0)">S</text><text xml:space="preserve" font-family="Helvetica,Helvetica" font-size="52.0" fill="#FFFFFF" transform="matrix(1.00, 0.00, -0.00, -1.00, 232.1, 477.0)">l</text><text xml:space="preserve" font-family="Helvetica,Helvetica" font-size="52.0" fill="#FFFFFF" transform="matrix(1.00, 0.00, -0.00, -1.00, 243.6, 477.0)">i</text><text xml:space="preserve" font-family="Helvetica,Helvetica" font-size="52.0" fill="#FFFFFF" transform="matrix(1.00, 0.00, -0.00, -1.00, 255.2, 477.0)">d</text><text xml:space="preserve" font-family="Helvetica,Helvetica" font-size="52.0" fill="#FFFFFF" transform="matrix(1.00, 0.00, -0.00, -1.00, 284.1, 477.0)">e</text><text xml:space="preserve" font-family="Helvetica,Helvetica" font-size="52.0" fill="#FFFFFF" transform="matrix(1.00, 0.00, -0.00, -1.00, 313.0, 477.0)">s</text><text xml:space="preserve" font-family="Helvetica,Helvetica" font-size="52.0" fill="#FFFFFF" transform="matrix(1.00, 0.00, -0.00, -1.00, 339.0, 477.0)"> </text><text xml:space="preserve" font-family="Helvetica,Helvetica" font-size="52.0" fill="#FFFFFF" transform="matrix(1.00, 0.00, -0.00, -1.00, 353.5, 477.0)">(</text><text xml:space="preserve" font-family="Helvetica,Helvetica" font-size="52.0" fill="#FFFFFF" transform="matrix(1.00, 0.00, -0.00, -1.00, 370.8, 477.0)">B</text><text xml:space="preserve" font-family="Helvetica,Helvetica" font-size="52.0" fill="#FFFFFF" transform="matrix(1.00, 0.00, -0.00, -1.00, 405.5, 477.0)">e</text><text xml:space="preserve" font-family="Helvetica,Helvetica" font-size="52.0" fill="#FFFFFF" transform="matrix(1.00, 0.00, -0.00, -1.00, 434.4, 477.0)">s</text><text xml:space="preserve" font-family="Helvetica,Helvetica" font-size="52.0" fill="#FFFFFF" transform="matrix(1.00, 0.00, -0.00, -1.00, 460.4, 477.0)">t</text><text xml:space="preserve" font-family="Helvetica,Helvetica" font-size="52.0" fill="#FFFFFF" transform="matrix(1.00, 0.00, -0.00, -1.00, 474.8, 477.0)"> </text><text xml:space="preserve" font-family="Helvetica,Helvetica" font-size="52.0" fill="#FFFFFF" transform="matrix(1.00, 0.00, -0.00, -1.00, 489.3, 477.0)">F</text><text xml:space="preserve" font-family="Helvetica,Helvetica" font-size="52.0" fill="#FFFFFF" transform="matrix(1.00, 0.00, -0.00, -1.00, 521.0, 477.0)">r</text><text xml:space="preserve" font-family="Helvetica,Helvetica" font-size="52.0" fill="#FFFFFF" transform="matrix(1.00, 0.00, -0.00, -1.00, 538.3, 477.0)">e</text><text xml:space="preserve" font-family="Helvetica,Helvetica" font-size="52.0" fill="#FFFFFF" transform="matrix(1.00, 0.00, -0.00, -1.00, 567.3, 477.0)">e</text><text xml:space="preserve" font-family="Helvetica,Helvetica" font-size="52.0" fill="#FFFFFF" transform="matrix(1.00, 0.00, -0.00, -1.00, 596.2, 477.0)"> </text><text xml:space="preserve" font-family="Helvetica,Helvetica" font-size="52.0" fill="#FFFFFF" transform="matrix(1.00, 0.00, -0.00, -1.00, 610.6, 477.0)">c</text><text xml:space="preserve" font-family="Helvetica,Helvetica" font-size="52.0" fill="#FFFFFF" transform="matrix(1.00, 0.00, -0.00, -1.00, 636.6, 477.0)">o</text><text xml:space="preserve" font-family="Helvetica,Helvetica" font-size="52.0" fill="#FFFFFF" transform="matrix(1.00, 0.00, -0.00, -1.00, 665.6, 477.0)">n</text><text xml:space="preserve" font-family="Helvetica,Helvetica" font-size="52.0" fill="#FFFFFF" transform="matrix(1.00, 0.00, -0.00, -1.00, 694.5, 477.0)">t</text><text xml:space="preserve" font-family="Helvetica,Helvetica" font-size="52.0" fill="#FFFFFF" transform="matrix(1.00, 0.00, -0.00, -1.00, 708.9, 477.0)">r</text><text xml:space="preserve" font-family="Helvetica,Helvetica" font-size="52.0" fill="#FFFFFF" transform="matrix(1.00, 0.00, -0.00, -1.00, 726.2, 477.0)">i</text><text xml:space="preserve" font-family="Helvetica,Helvetica" font-size="52.0" fill="#FFFFFF" transform="matrix(1.00, 0.00, -0.00, -1.00, 737.8, 477.0)">b</text><text xml:space="preserve" font-family="Helvetica,Helvetica" font-size="52.0" fill="#FFFFFF" transform="matrix(1.00, 0.00, -0.00, -1.00, 766.7, 477.0)">u</text><text xml:space="preserve" font-family="Helvetica,Helvetica" font-size="52.0" fill="#FFFFFF" transform="matrix(1.00, 0.00, -0.00, -1.00, 795.7, 477.0)">t</text><text xml:space="preserve" font-family="Helvetica,Helvetica" font-size="52.0" fill="#FFFFFF" transform="matrix(1.00, 0.00, -0.00, -1.00, 810.1, 477.0)">i</text><text xml:space="preserve" font-family="Helvetica,Helvetica" font-size="52.0" fill="#FFFFFF" transform="matrix(1.00, 0.00, -0.00, -1.00, 821.7, 477.0)">o</text><text xml:space="preserve" font-family="Helvetica,Helvetica" font-size="52.0" fill="#FFFFFF" transform="matrix(1.00, 0.00, -0.00, -1.00, 850.6, 477.0)">n</text><text xml:space="preserve" font-family="Helvetica,Helvetica" font-size="52.0" fill="#FFFFFF" transform="matrix(1.00, 0.00, -0.00, -1.00, 879.5, 477.0)"> </text><text xml:space="preserve" font-family="Helvetica,Helvetica" font-size="52.0" fill="#FFFFFF" transform="matrix(1.00, 0.00, -0.00, -1.00, 894.0, 477.0)">i</text><text xml:space="preserve" font-family="Helvetica,Helvetica" font-size="52.0" fill="#FFFFFF" transform="matrix(1.00, 0.00, -0.00, -1.00, 905.5, 477.0)">n</text><text xml:space="preserve" font-family="Helvetica,Helvetica" font-size="52.0" fill="#FFFFFF" transform="matrix(1.00, 0.00, -0.00, -1.00, 934.5, 477.0)"> </text><text xml:space="preserve" font-family="Helvetica,Helvetica" font-size="52.0" fill="#FFFFFF" transform="matrix(1.00, 0.00, -0.00, -1.00, 948.9, 477.0)">2</text><text xml:space="preserve" font-family="Helvetica,Helvetica" font-size="52.0" fill="#FFFFFF" transform="matrix(1.00, 0.00, -0.00, -1.00, 977.8, 477.0)">0</text><text xml:space="preserve" font-family="Helvetica,Helvetica" font-size="52.0" fill="#FFFFFF" transform="matrix(1.00, 0.00, -0.00, -1.00, 1006.8, 477.0)">1</text><text xml:space="preserve" font-family="Helvetica,Helvetica" font-size="52.0" fill="#FFFFFF" transform="matrix(1.00, 0.00, -0.00, -1.00, 1035.7, 477.0)">4</text><text xml:space="preserve" font-family="Helvetica,Helvetica" font-size="52.0" fill="#FFFFFF" transform="matrix(1.00, 0.00, -0.00, -1.00, 1064.6, 477.0)">)</text><text xml:space="preserve" font-family="Helvetica,Helvetica" font-size="42.6" fill="#FFFFFF" transform="matrix(1.00, 0.00, -0.00, -1.00, 0.0, 363.8)">•</text><text xml:space="preserve" font-family="Helvetica,Helvetica" font-size="52.0" fill="#FFFFFF" transform="matrix(1.00, 0.00, -0.00, -1.00, 24.0, 361.0)">M</text><text xml:space="preserve" font-family="Helvetica,Helvetica" font-size="52.0" fill="#FFFFFF" transform="matrix(1.00, 0.00, -0.00, -1.00, 67.3, 361.0)">o</text><text xml:space="preserve" font-family="Helvetica,Helvetica" font-size="52.0" fill="#FFFFFF" transform="matrix(1.00, 0.00, -0.00, -1.00, 96.2, 361.0)">z</text><text xml:space="preserve" font-family="Helvetica,Helvetica" font-size="52.0" fill="#FFFFFF" transform="matrix(1.00, 0.00, -0.00, -1.00, 122.2, 361.0)">T</text><text xml:space="preserve" font-family="Helvetica,Helvetica" font-size="52.0" fill="#FFFFFF" transform="matrix(1.00, 0.00, -0.00, -1.00, 154.0, 361.0)">n</text><text xml:space="preserve" font-family="Helvetica,Helvetica" font-size="52.0" fill="#FFFFFF" transform="matrix(1.00, 0.00, -0.00, -1.00, 182.9, 361.0)"> </text><text xml:space="preserve" font-family="Helvetica,Helvetica" font-size="52.0" fill="#FFFFFF" transform="matrix(1.00, 0.00, -0.00, -1.00, 197.4, 361.0)">W</text><text xml:space="preserve" font-family="Helvetica,Helvetica" font-size="52.0" fill="#FFFFFF" transform="matrix(1.00, 0.00, -0.00, -1.00, 246.4, 361.0)">i</text><text xml:space="preserve" font-family="Helvetica,Helvetica" font-size="52.0" fill="#FFFFFF" transform="matrix(1.00, 0.00, -0.00, -1.00, 258.0, 361.0)">k</text><text xml:space="preserve" font-family="Helvetica,Helvetica" font-size="52.0" fill="#FFFFFF" transform="matrix(1.00, 0.00, -0.00, -1.00, 284.0, 361.0)">i</text><text xml:space="preserve" font-family="Helvetica,Helvetica" font-size="52.0" fill="#FFFFFF" transform="matrix(1.00, 0.00, -0.00, -1.00, 295.6, 361.0)"> </text><text xml:space="preserve" font-family="Helvetica,Helvetica" font-size="52.0" fill="#FFFFFF" transform="matrix(1.00, 0.00, -0.00, -1.00, 310.0, 361.0)"> </text><text xml:space="preserve" font-family="Helvetica,Helvetica" font-size="52.0" fill="#FFFFFF" transform="matrix(1.00, 0.00, -0.00, -1.00, 324.4, 361.0)"> </text><text xml:space="preserve" font-family="Helvetica,Helvetica" font-size="42.6" fill="#FFFFFF" transform="matrix(1.00, 0.00, -0.00, -1.00, 0.0, 247.8)">•</text><text xml:space="preserve" font-family="Helvetica,Helvetica" font-size="52.0" fill="#FFFFFF" transform="matrix(1.00, 0.00, -0.00, -1.00, 24.0, 245.0)">M</text><text xml:space="preserve" font-family="Helvetica,Helvetica" font-size="52.0" fill="#FFFFFF" transform="matrix(1.00, 0.00, -0.00, -1.00, 67.3, 245.0)">o</text><text xml:space="preserve" font-family="Helvetica,Helvetica" font-size="52.0" fill="#FFFFFF" transform="matrix(1.00, 0.00, -0.00, -1.00, 96.2, 245.0)">z</text><text xml:space="preserve" font-family="Helvetica,Helvetica" font-size="52.0" fill="#FFFFFF" transform="matrix(1.00, 0.00, -0.00, -1.00, 122.2, 245.0)">i</text><text xml:space="preserve" font-family="Helvetica,Helvetica" font-size="52.0" fill="#FFFFFF" transform="matrix(1.00, 0.00, -0.00, -1.00, 133.8, 245.0)">l</text><text xml:space="preserve" font-family="Helvetica,Helvetica" font-size="52.0" fill="#FFFFFF" transform="matrix(1.00, 0.00, -0.00, -1.00, 145.4, 245.0)">l</text><text xml:space="preserve" font-family="Helvetica,Helvetica" font-size="52.0" fill="#FFFFFF" transform="matrix(1.00, 0.00, -0.00, -1.00, 156.9, 245.0)">a</text><text xml:space="preserve" font-family="Helvetica,Helvetica" font-size="52.0" fill="#FFFFFF" transform="matrix(1.00, 0.00, -0.00, -1.00, 185.9, 245.0)"> </text><text xml:space="preserve" font-family="Helvetica,Helvetica" font-size="52.0" fill="#FFFFFF" transform="matrix(1.00, 0.00, -0.00, -1.00, 199.4, 245.0)">T</text><text xml:space="preserve" font-family="Helvetica,Helvetica" font-size="52.0" fill="#FFFFFF" transform="matrix(1.00, 0.00, -0.00, -1.00, 229.2, 245.0)">u</text><text xml:space="preserve" font-family="Helvetica,Helvetica" font-size="52.0" fill="#FFFFFF" transform="matrix(1.00, 0.00, -0.00, -1.00, 258.2, 245.0)">n</text><text xml:space="preserve" font-family="Helvetica,Helvetica" font-size="52.0" fill="#FFFFFF" transform="matrix(1.00, 0.00, -0.00, -1.00, 287.1, 245.0)">i</text><text xml:space="preserve" font-family="Helvetica,Helvetica" font-size="52.0" fill="#FFFFFF" transform="matrix(1.00, 0.00, -0.00, -1.00, 298.7, 245.0)">s</text><text xml:space="preserve" font-family="Helvetica,Helvetica" font-size="52.0" fill="#FFFFFF" transform="matrix(1.00, 0.00, -0.00, -1.00, 324.7, 245.0)">i</text><text xml:space="preserve" font-family="Helvetica,Helvetica" font-size="52.0" fill="#FFFFFF" transform="matrix(1.00, 0.00, -0.00, -1.00, 336.2, 245.0)">a</text><text xml:space="preserve" font-family="Helvetica,Helvetica" font-size="52.0" fill="#FFFFFF" transform="matrix(1.00, 0.00, -0.00, -1.00, 365.2, 245.0)"> </text><text xml:space="preserve" font-family="Helvetica,Helvetica" font-size="52.0" fill="#FFFFFF" transform="matrix(1.00, 0.00, -0.00, -1.00, 379.6, 245.0)">L</text><text xml:space="preserve" font-family="Helvetica,Helvetica" font-size="52.0" fill="#FFFFFF" transform="matrix(1.00, 0.00, -0.00, -1.00, 408.5, 245.0)">o</text><text xml:space="preserve" font-family="Helvetica,Helvetica" font-size="52.0" fill="#FFFFFF" transform="matrix(1.00, 0.00, -0.00, -1.00, 437.5, 245.0)">g</text><text xml:space="preserve" font-family="Helvetica,Helvetica" font-size="52.0" fill="#FFFFFF" transform="matrix(1.00, 0.00, -0.00, -1.00, 466.4, 245.0)">o</text><text xml:space="preserve" font-family="Helvetica,Helvetica" font-size="52.0" fill="#FFFFFF" transform="matrix(1.00, 0.00, -0.00, -1.00, 495.3, 245.0)"> </text><text xml:space="preserve" font-family="Helvetica,Helvetica" font-size="52.0" fill="#FFFFFF" transform="matrix(1.00, 0.00, -0.00, -1.00, 509.8, 245.0)">v</text><text xml:space="preserve" font-family="Helvetica,Helvetica" font-size="52.0" fill="#FFFFFF" transform="matrix(1.00, 0.00, -0.00, -1.00, 535.8, 245.0)">2</text><text xml:space="preserve" font-family="Helvetica,Helvetica" font-size="52.0" fill="#FFFFFF" transform="matrix(1.00, 0.00, -0.00, -1.00, 564.7, 245.0)"> </text><text xml:space="preserve" font-family="Helvetica,Helvetica" font-size="42.6" fill="#FFFFFF" transform="matrix(1.00, 0.00, -0.00, -1.00, 0.0, 131.8)">•</text><text xml:space="preserve" font-family="Helvetica,Helvetica" font-size="52.0" fill="#FFFFFF" transform="matrix(1.00, 0.00, -0.00, -1.00, 24.0, 129.0)">F</text><text xml:space="preserve" font-family="Helvetica,Helvetica" font-size="52.0" fill="#FFFFFF" transform="matrix(1.00, 0.00, -0.00, -1.00, 55.8, 129.0)">i</text><text xml:space="preserve" font-family="Helvetica,Helvetica" font-size="52.0" fill="#FFFFFF" transform="matrix(1.00, 0.00, -0.00, -1.00, 67.3, 129.0)">r</text><text xml:space="preserve" font-family="Helvetica,Helvetica" font-size="52.0" fill="#FFFFFF" transform="matrix(1.00, 0.00, -0.00, -1.00, 84.6, 129.0)">e</text><text xml:space="preserve" font-family="Helvetica,Helvetica" font-size="52.0" fill="#FFFFFF" transform="matrix(1.00, 0.00, -0.00, -1.00, 113.6, 129.0)">f</text><text xml:space="preserve" font-family="Helvetica,Helvetica" font-size="52.0" fill="#FFFFFF" transform="matrix(1.00, 0.00, -0.00, -1.00, 128.0, 129.0)">o</text><text xml:space="preserve" font-family="Helvetica,Helvetica" font-size="52.0" fill="#FFFFFF" transform="matrix(1.00, 0.00, -0.00, -1.00, 156.9, 129.0)">x</text><text xml:space="preserve" font-family="Helvetica,Helvetica" font-size="52.0" fill="#FFFFFF" transform="matrix(1.00, 0.00, -0.00, -1.00, 182.9, 129.0)"> </text><text xml:space="preserve" font-family="Helvetica,Helvetica" font-size="52.0" fill="#FFFFFF" transform="matrix(1.00, 0.00, -0.00, -1.00, 197.4, 129.0)">O</text><text xml:space="preserve" font-family="Helvetica,Helvetica" font-size="52.0" fill="#FFFFFF" transform="matrix(1.00, 0.00, -0.00, -1.00, 237.8, 129.0)">S</text><text xml:space="preserve" font-family="Helvetica,Helvetica" font-size="52.0" fill="#FFFFFF" transform="matrix(1.00, 0.00, -0.00, -1.00, 272.5, 129.0)"> </text><text xml:space="preserve" font-family="Helvetica,Helvetica" font-size="52.0" fill="#FFFFFF" transform="matrix(1.00, 0.00, -0.00, -1.00, 286.9, 129.0)">B</text><text xml:space="preserve" font-family="Helvetica,Helvetica" font-size="52.0" fill="#FFFFFF" transform="matrix(1.00, 0.00, -0.00, -1.00, 321.6, 129.0)">e</text><text xml:space="preserve" font-family="Helvetica,Helvetica" font-size="52.0" fill="#FFFFFF" transform="matrix(1.00, 0.00, -0.00, -1.00, 350.5, 129.0)">t</text><text xml:space="preserve" font-family="Helvetica,Helvetica" font-size="52.0" fill="#FFFFFF" transform="matrix(1.00, 0.00, -0.00, -1.00, 365.0, 129.0)">t</text><text xml:space="preserve" font-family="Helvetica,Helvetica" font-size="52.0" fill="#FFFFFF" transform="matrix(1.00, 0.00, -0.00, -1.00, 379.4, 129.0)">o</text><text xml:space="preserve" font-family="Helvetica,Helvetica" font-size="52.0" fill="#FFFFFF" transform="matrix(1.00, 0.00, -0.00, -1.00, 408.3, 129.0)">u</text><text xml:space="preserve" font-family="Helvetica,Helvetica" font-size="52.0" fill="#FFFFFF" transform="matrix(1.00, 0.00, -0.00, -1.00, 437.3, 129.0)">n</text><text xml:space="preserve" font-family="Helvetica,Helvetica" font-size="52.0" fill="#FFFFFF" transform="matrix(1.00, 0.00, -0.00, -1.00, 466.2, 129.0)">s</text><text xml:space="preserve" font-family="Helvetica,Helvetica" font-size="52.0" fill="#FFFFFF" transform="matrix(1.00, 0.00, -0.00, -1.00, 492.2, 129.0)">i</text><text xml:space="preserve" font-family="Helvetica,Helvetica" font-size="42.6" fill="#FFFFFF" transform="matrix(1.00, 0.00, -0.00, -1.00, 0.0, 15.8)">•</text><text xml:space="preserve" font-family="Helvetica,Helvetica" font-size="52.0" fill="#FFFFFF" transform="matrix(1.00, 0.00, -0.00, -1.00, 24.0, 13.0)">S</text><text xml:space="preserve" font-family="Helvetica,Helvetica" font-size="52.0" fill="#FFFFFF" transform="matrix(1.00, 0.00, -0.00, -1.00, 58.7, 13.0)">u</text><text xml:space="preserve" font-family="Helvetica,Helvetica" font-size="52.0" fill="#FFFFFF" transform="matrix(1.00, 0.00, -0.00, -1.00, 87.6, 13.0)">m</text><text xml:space="preserve" font-family="Helvetica,Helvetica" font-size="52.0" fill="#FFFFFF" transform="matrix(1.00, 0.00, -0.00, -1.00, 130.9, 13.0)">m</text><text xml:space="preserve" font-family="Helvetica,Helvetica" font-size="52.0" fill="#FFFFFF" transform="matrix(1.00, 0.00, -0.00, -1.00, 174.2, 13.0)">e</text><text xml:space="preserve" font-family="Helvetica,Helvetica" font-size="52.0" fill="#FFFFFF" transform="matrix(1.00, 0.00, -0.00, -1.00, 203.2, 13.0)">r</text><text xml:space="preserve" font-family="Helvetica,Helvetica" font-size="52.0" fill="#FFFFFF" transform="matrix(1.00, 0.00, -0.00, -1.00, 220.5, 13.0)"> </text><text xml:space="preserve" font-family="Helvetica,Helvetica" font-size="52.0" fill="#FFFFFF" transform="matrix(1.00, 0.00, -0.00, -1.00, 234.9, 13.0)">E</text><text xml:space="preserve" font-family="Helvetica,Helvetica" font-size="52.0" fill="#FFFFFF" transform="matrix(1.00, 0.00, -0.00, -1.00, 269.6, 13.0)">n</text><text xml:space="preserve" font-family="Helvetica,Helvetica" font-size="52.0" fill="#FFFFFF" transform="matrix(1.00, 0.00, -0.00, -1.00, 298.5, 13.0)">g</text><text xml:space="preserve" font-family="Helvetica,Helvetica" font-size="52.0" fill="#FFFFFF" transform="matrix(1.00, 0.00, -0.00, -1.00, 327.5, 13.0)">a</text><text xml:space="preserve" font-family="Helvetica,Helvetica" font-size="52.0" fill="#FFFFFF" transform="matrix(1.00, 0.00, -0.00, -1.00, 356.4, 13.0)">g</text><text xml:space="preserve" font-family="Helvetica,Helvetica" font-size="52.0" fill="#FFFFFF" transform="matrix(1.00, 0.00, -0.00, -1.00, 385.3, 13.0)">e</text><text xml:space="preserve" font-family="Helvetica,Helvetica" font-size="52.0" fill="#FFFFFF" transform="matrix(1.00, 0.00, -0.00, -1.00, 414.3, 13.0)">m</text><text xml:space="preserve" font-family="Helvetica,Helvetica" font-size="52.0" fill="#FFFFFF" transform="matrix(1.00, 0.00, -0.00, -1.00, 457.6, 13.0)">e</text><text xml:space="preserve" font-family="Helvetica,Helvetica" font-size="52.0" fill="#FFFFFF" transform="matrix(1.00, 0.00, -0.00, -1.00, 486.5, 13.0)">n</text><text xml:space="preserve" font-family="Helvetica,Helvetica" font-size="52.0" fill="#FFFFFF" transform="matrix(1.00, 0.00, -0.00, -1.00, 515.4, 13.0)">t</text></g></svg>